<?xml version="1.0" encoding="utf-8"?>
<!-- Generator: Adobe Illustrator 19.2.0, SVG Export Plug-In . SVG Version: 6.00 Build 0)  -->
<svg version="1.1" id="Layer_3" xmlns="http://www.w3.org/2000/svg" xmlns:xlink="http://www.w3.org/1999/xlink" x="0px" y="0px"
	 viewBox="0 0 100 100" style="enable-background:new 0 0 100 100;" xml:space="preserve">
<style type="text/css">
	.st0{fill:#FCFCFC;stroke:#FCFCFC;stroke-width:0.04;stroke-miterlimit:10;}
	.st1{fill:#78A7F4;}
	.st2{fill:#DFE1E5;stroke:#DFE1E5;stroke-width:0.04;stroke-miterlimit:10;}
	.st3{fill:#AD917B;stroke:#AD917B;stroke-width:0.04;stroke-miterlimit:10;}
	.st4{fill:#896146;stroke:#896146;stroke-width:0.04;stroke-miterlimit:10;}
	.st5{fill:#4C3F34;stroke:#4C3F34;stroke-width:0.04;stroke-miterlimit:10;}
	.st6{fill:#B6BDC6;stroke:#B6BDC6;stroke-width:0.04;stroke-miterlimit:10;}
	.st7{fill:#2A6FD3;stroke:#2A6FD3;stroke-width:0.04;stroke-miterlimit:10;}
	.st8{fill:#3B75EA;stroke:#3B75EA;stroke-width:0.04;stroke-miterlimit:10;}
	.st9{fill:#354E72;stroke:#354E72;stroke-width:0.04;stroke-miterlimit:10;}
	.st10{fill:#758BAA;stroke:#758BAA;stroke-width:0.04;stroke-miterlimit:10;}
</style>
<g id="XMLID_1_">
	<g>
		<path class="st0" d="M63.04,90.5c0.11-0.37,0.25-0.73,0.39-1.09c0.24-1.81,0.53-4.07,0.85-6.64c-0.29,0.58-0.58,1.21-0.86,1.88
			L63.04,90.5z"/>
		<path class="st0" d="M63.62,81.56c0.34-0.68,0.69-1.31,1.05-1.88c0.24-2,0.5-4.14,0.76-6.38c-0.45,0.5-0.91,1.05-1.37,1.65
			L63.62,81.56z"/>
		<path class="st0" d="M65.01,60.46c0.71-0.69,1.39-1.31,2.03-1.85c0.27-2.64,0.53-5.28,0.75-7.86c-0.71,0.65-1.48,1.39-2.29,2.21
			L65.01,60.46z"/>
		<path class="st0" d="M65.62,51.16c0.83-0.81,1.61-1.51,2.32-2.1c0.18-2.12,0.35-4.2,0.48-6.18c-0.73,0.6-1.53,1.29-2.39,2.07
			L65.62,51.16z"/>
		<path class="st0" d="M67.41,23.87l-0.19,2.89c0.46-0.37,0.9-0.7,1.33-1.02C68.31,24.46,67.94,23.78,67.41,23.87z"/>
		<path class="st0" d="M67.11,28.49l-0.44,6.69c0.79-0.67,1.54-1.27,2.22-1.8c0.04-2.48,0.01-4.59-0.14-6.18
			C68.23,27.6,67.68,28.03,67.11,28.49z"/>
		<path class="st0" d="M71.97,11.3c-3.04-1.12-7.34-1.94-12.38-2.42c-2.92-0.28-6.11-0.42-9.46-0.48
			c-3.37-0.04-6.92,0.06-10.58,0.29c-3.65,0.26-7.43,0.62-11.19,1.39c-1.39,0.29-2.79,0.63-4.14,1.08
			C29.81,9.94,49.15,6.47,71.97,11.3z"/>
		<path class="st0" d="M74.16,12.56c0.15,0.17,1.86,2.16,0.23,3.07C74.82,15.44,77.28,14.21,74.16,12.56z"/>
		<path class="st0" d="M21.23,15.63c-1.63-0.91,0.08-2.9,0.23-3.07C18.34,14.21,20.8,15.44,21.23,15.63z"/>
		<path class="st0" d="M68.67,17.63c-2.75,0.67-6.01,1.2-9.53,1.52c-3.51,0.31-7.27,0.48-11.03,0.5c-3.76-0.03-7.52-0.2-11.03-0.52
			c-3.51-0.33-6.77-0.86-9.52-1.55c-1.37-0.34-2.62-0.75-3.66-1.27c-0.11-0.06-0.22-0.11-0.33-0.17l-1.09-0.38
			c2.76,2.55,13.31,4.45,25.91,4.45c12.16,0,22.42-1.77,25.59-4.18l-1.73,0.41C71.22,16.91,70,17.3,68.67,17.63z"/>
	</g>
	<path class="st1" d="M63.04,90.5c0.11-0.37,0.25-0.73,0.39-1.09c-0.39,3.04-0.64,4.84-0.64,4.84L63.04,90.5z"/>
	<g>
		<path class="st2" d="M64.06,74.95c-3.27,4.25-6.72,11.23-6.19,21.41c0.73-0.1,1.44-0.21,2.11-0.34
			c0.41-6.39,1.95-11.11,3.64-14.46L64.06,74.95z"/>
		<path class="st2" d="M61.57,95.68c0.2-0.05,0.39-0.1,0.57-0.15c0.02-1.74,0.37-3.44,0.9-5.03l0.38-5.85
			c-1.21,2.9-2.24,6.59-2.66,11.22C61.04,95.81,61.31,95.75,61.57,95.68z"/>
		<path class="st2" d="M63.43,89.41c1.13-2.91,2.77-5.36,3.85-6.79c0.04-0.42,0.07-0.85,0.11-1.29c0.11-1.19,0.22-2.44,0.34-3.75
			c-0.99,1.12-2.26,2.81-3.45,5.19C63.96,85.34,63.67,87.6,63.43,89.41z"/>
		<path class="st2" d="M65.43,73.3c-0.26,2.24-0.52,4.38-0.76,6.38c1.23-2.04,2.44-3.39,3.25-4.17c0.15-1.61,0.3-3.3,0.47-5.03
			C67.66,71.06,66.6,71.99,65.43,73.3z"/>
		<path class="st2" d="M67.94,49.06c1.28-1.1,2.31-1.86,2.91-2.27c0.18-1.7,0.37-3.37,0.55-5c0.04-0.42,0.09-0.83,0.14-1.24
			c-0.71,0.48-1.8,1.26-3.12,2.33C68.29,44.86,68.12,46.94,67.94,49.06z"/>
		<path class="st2" d="M67.04,58.61c1.09-0.93,2.04-1.63,2.75-2.1c0.04-0.32,0.07-0.64,0.1-0.96c0.26-2.42,0.53-4.83,0.78-7.2
			c-0.77,0.59-1.76,1.39-2.88,2.4C67.57,53.33,67.31,55.97,67.04,58.61z"/>
		<path class="st2" d="M65.01,60.46l0.49-7.5C58.19,60.42,48.09,75,50.9,96.94c0.8-0.02,1.59-0.07,2.36-0.12
			C51.39,77.72,59.14,66.26,65.01,60.46z"/>
		<path class="st2" d="M65.62,51.16l0.41-6.21c-8.57,7.81-22.16,24.91-17.44,52.04c0.47,0.01,0.93,0,1.39-0.01
			C46.69,73.48,58.2,58.3,65.62,51.16z"/>
		<path class="st2" d="M26.49,61.75c0.26,2.58,0.52,5.12,0.76,7.56c0.19,1.89,0.36,3.73,0.52,5.48c0.12-1.33,0.27-2.62,0.44-3.89
			c-0.4-3.81-0.82-7.78-1.23-11.74C26.8,60.01,26.64,60.87,26.49,61.75z"/>
		<path class="st2" d="M24.62,44.18c0.27,2.46,0.55,5,0.83,7.56c0.05-1.23,0.17-2.47,0.36-3.71c-0.23-2.23-0.46-4.4-0.68-6.48
			C24.93,42.42,24.76,43.3,24.62,44.18z"/>
		<path class="st2" d="M68.89,33.38c1.74-1.35,3.1-2.25,3.82-2.7c0.03-0.3,0.07-0.59,0.1-0.88c0.26-2.26,0.53-4.28,0.75-5.97
			c-1.13,0.72-2.81,1.84-4.81,3.37C68.9,28.79,68.93,30.9,68.89,33.38z"/>
		<path class="st2" d="M66.67,35.18l0.44-6.69c-12.1,9.74-32.82,32.25-25.65,68.26c0.86,0.08,1.74,0.13,2.62,0.17
			c0.1,0,0.2,0.01,0.3,0.01C38.58,64.09,56.45,43.82,66.67,35.18z"/>
		<path class="st2" d="M38.51,96.46c0.63,0.08,1.28,0.15,1.94,0.21c0.06,0.01,0.11,0.01,0.17,0.01
			c-7.89-37.62,14.64-60.65,26.6-69.92l0.19-2.89c0.53-0.09,0.9,0.59,1.14,1.87c2.55-1.89,4.46-3.06,5.23-3.5
			c0.03-0.32,0.07-0.63,0.11-0.91c0.06-0.43,0.11-0.82,0.16-1.17c-3.23,1.32-6.49,2.3-9.72,3.01C54.23,31.32,29.1,56.1,38.51,96.46z
			"/>
		<path class="st2" d="M43.57,24.61c-2.8,3.18-8.05,9.96-12.21,20.13c0.23,2.65,0.51,5.63,0.84,8.95
			c5.07-15.1,12.78-24.8,16.55-28.91C46.97,24.78,45.24,24.72,43.57,24.61z"/>
		<path class="st2" d="M32.87,23.28c-0.66,1.08-1.59,2.67-2.59,4.62c0,0,0.01,0,0,0.01c0.03,1.34,0.1,3.01,0.21,5.09
			c1.83-4.09,3.73-7.42,4.87-9.3C34.5,23.57,33.67,23.42,32.87,23.28z"/>
		<path class="st2" d="M30.28,25.35c0.55-0.95,1.04-1.73,1.42-2.3c-0.42-0.08-0.83-0.17-1.23-0.25
			C30.39,23.21,30.31,23.96,30.28,25.35z"/>
		<path class="st2" d="M76.34,13.97v-0.01c-0.01-0.01-0.01-0.02-0.02-0.03c-0.42-0.64-1.49-1.41-3.01-2.09
			c-0.41-0.19-0.86-0.37-1.34-0.54c-22.82-4.83-42.16-1.36-47.75-0.14c-0.01,0.01-0.02,0.01-0.03,0.01
			c-0.46,0.15-0.91,0.31-1.35,0.49c-0.88,0.35-1.74,0.79-2.48,1.32c-0.47,0.35-0.89,0.75-1.13,1.19c0.32,3.67,12.98,6.62,28.55,6.62
			c15.78,0,28.57-3.03,28.57-6.77C76.35,14,76.35,13.99,76.34,13.97z M21.23,15.63c-0.43-0.19-2.89-1.42,0.23-3.07
			C21.31,12.73,19.6,14.72,21.23,15.63z M74.35,14.54c0,0.01,0,0.02,0,0.02c-0.05,0.37-0.31,0.72-0.62,0.98
			c-0.39,0.33-0.87,0.61-1.39,0.86c-0.03,0.01-0.06,0.03-0.09,0.04l1.73-0.41c-3.17,2.41-13.43,4.18-25.59,4.18
			c-12.6,0-23.15-1.9-25.91-4.45l1.09,0.38c-0.39-0.22-0.75-0.45-1.04-0.74c-0.37-0.36-0.61-0.91-0.41-1.34
			c0.18-0.42,0.49-0.65,0.75-0.84c0.27-0.18,0.52-0.3,0.71-0.4c0.02-0.01,0.05-0.02,0.07-0.03c0.02-0.01,0.04-0.02,0.07-0.03
			c3.57-1.83,13.23-3.14,24.59-3.14c5.6,0,10.79,0.32,15.04,0.86c6.67,0.85,11.03,2.25,11.03,3.84
			C74.38,14.39,74.37,14.47,74.35,14.54z M74.39,15.63c1.63-0.91-0.08-2.9-0.23-3.07C77.28,14.21,74.82,15.44,74.39,15.63z"/>
	</g>
	<g>
		<path class="st3" d="M71.04,15.04c-0.34,0-0.62,0.28-0.62,0.62c0,0.35,0.28,0.63,0.62,0.63c0.35,0,0.63-0.28,0.63-0.63
			C71.67,15.32,71.39,15.04,71.04,15.04z"/>
		<path class="st3" d="M69.08,14.53c-0.22,0.21-0.22,0.56,0,0.77c0.21,0.21,0.55,0.21,0.76,0c0.21-0.21,0.21-0.56,0-0.77
			C69.63,14.32,69.29,14.32,69.08,14.53z"/>
		<path class="st3" d="M56.12,17.46c-0.2,0-0.37,0.16-0.37,0.37c0,0.21,0.17,0.38,0.37,0.38c0.21,0,0.38-0.17,0.38-0.38
			C56.5,17.62,56.33,17.46,56.12,17.46z"/>
		<path class="st3" d="M58.62,17.21c-0.39,0-0.7,0.31-0.7,0.7c0,0.16,0.05,0.31,0.15,0.43c0.34-0.01,0.67-0.03,1-0.06
			c0.06,0,0.11-0.01,0.17-0.01c0.06-0.1,0.09-0.23,0.09-0.36C59.33,17.52,59.02,17.21,58.62,17.21z"/>
		<circle class="st3" cx="55.04" cy="11.75" r="0.54"/>
		<circle class="st3" cx="40.79" cy="17.25" r="0.46"/>
		<path class="st3" d="M38.17,12.21c0.32,0,0.58-0.25,0.58-0.54c0-0.3-0.26-0.55-0.58-0.55c-0.33,0-0.59,0.25-0.59,0.55
			C37.58,11.96,37.84,12.21,38.17,12.21z"/>
		<path class="st3" d="M36.38,12.04c0.25,0,0.45-0.19,0.45-0.42s-0.2-0.41-0.45-0.41c-0.26,0-0.46,0.18-0.46,0.41
			S36.12,12.04,36.38,12.04z"/>
		<circle class="st3" cx="31.54" cy="12.83" r="0.71"/>
		<path class="st3" d="M47.58,16.96c-0.68-0.23-4.48,0.51-5.39,1.59c0.36,0.02,0.72,0.03,1.08,0.03c0.5-0.35,1.26-0.8,2.06-1.04
			c1.4-0.41,2.46-0.18,3.45,1.11c0.17,0,0.35,0,0.52,0l0.2-0.03C49.5,18.62,48.33,17.21,47.58,16.96z"/>
		<path class="st3" d="M67.92,14.79c-0.92-0.5-2.59-1.33-4-1.08c-1.42,0.25-2.34,1.91-2.84,2.91c-0.33,0.67,0.11,1.18,0.44,1.45
			c0.07-0.01,0.15-0.01,0.22-0.02c-0.38-1.11,0.4-2.32,1.26-3.09c0.92-0.84,4.67-1.34,4.67,0.66s-3,0.67-3,0.67
			c-0.26,1.37,1.56,1.2,2.49,1.04c0.3-0.06,0.51-0.12,0.51-0.12l0.91-0.5C68.58,16.71,68.83,15.29,67.92,14.79z"/>
		<path class="st3" d="M58.42,16.37c0,0,0.08-0.83-0.17-1.33s-2.17-0.75-3.67-1.25s-1.83,0-2.58,0.42c-0.75,0.41-3.08,2-1.92,2.41
			c1.17,0.42,3.25-0.5,3.25-0.5s-1.91,0.09-2.16-0.33s1.5-1.58,2.08-1.5s3.08,0.33,3.83,0.92c0.75,0.58,0.17,2.08,0.17,2.08
			L58.42,16.37z"/>
		<path class="st3" d="M57.92,12.54c0.41-0.67,3-1.17,4.5-0.83c1.5,0.33,1.08,1.66,1.08,1.66s1.17-1.91-0.25-2.16s-4.33,0-5.5,0.16
			c-1.17,0.17-1.08,2-1.08,2S57.5,13.21,57.92,12.54z"/>
		<path class="st3" d="M49.5,10.54c0,0-2.83-0.17-1.67,1.33C47.83,11.87,48.08,11.12,49.5,10.54z"/>
		<path class="st3" d="M48.5,12.62c0.65,0.46,1.67,0.87,2.08,1.03c-0.14-0.14-0.37-0.4-0.75-0.86c-1.16-1.42,1-1.25,2.34-1
			c1.33,0.25,1.91,0.83,1.91,0.83s0.09-0.83-0.5-1.16c-0.58-0.34-2.08-0.5-3.91-0.17C47.83,11.62,48.5,12.62,48.5,12.62z"/>
		<path class="st3" d="M47,11.71c-1.25-0.84-3.83-0.17-4.83-0.17s-2.17,0.92-2.75,2.17c-0.5,1.05,0.66,2.04,1.04,2.32
			c-0.12-0.14-0.25-0.4,0.21-0.74c0.62-0.47,2.44,1.22,2.64,1.4c-1.9-2.73-3.23-2.07-3.23-2.07s0,0-0.08-0.41
			c-0.08-0.42,0.83-1.17,1.25-1.59c0.42-0.41,4.42-1,5.25-0.58s2.75,2.5,2.75,2.5l0.5-0.17C49.75,14.37,48.25,12.54,47,11.71z"/>
		<path class="st3" d="M37.92,13.71c0,0-2.42-1.17-3.42-1.42s-2,1.33-2,1.33s0.58-0.5,1.08-0.75s1.25,0,2.67,0.67
			s1.17,1.25,1.17,1.25l-3.92-0.75c-0.58,0-1,0.25-1,0.25s-2.08,1.25-2.58,1.83c-0.35,0.41,0.19,1.06,0.55,1.42
			c0.05,0.01,0.11,0.02,0.16,0.02c-0.61-1.22,0.25-1.47,1.04-1.94c0.83-0.5,1.5-0.83,1.5-0.83s3.75-0.08,5,1.08
			c1.08,1.01,0.79,2.2,0.69,2.51c0.27,0.03,0.54,0.04,0.81,0.05c0.01-0.14,0.01-0.8-0.5-2.47C38.58,14.04,37.92,13.71,37.92,13.71z"
			/>
		<path class="st3" d="M27.83,16.12c0,0-2.25-0.41-2.41-1.58c-0.17-1.17,3-2,5.25-0.25c0,0-0.75-1.42-3-1.58
			c-2.25-0.17-3.25,2.08-3.25,2.08s0.75,1.33,3.41,1.67C30.5,16.79,27.83,16.12,27.83,16.12z"/>
	</g>
	<g>
		<path class="st4" d="M61.59,12.38c0.71,1.01-1.66,1.01-2.83,0.78c0.96,0.27,3.27,0.84,3.66,0.38
			C62.89,12.99,61.72,12.43,61.59,12.38z"/>
		<path class="st4" d="M45.75,15.21c0.42-0.5-0.33-1.17-0.33-1.17s-0.92-0.42-2.59-0.75c-1.66-0.33-2,0.83-2,0.83
			C43.67,13.96,45.33,15.71,45.75,15.21z"/>
		<path class="st4" d="M62.83,16.12c-0.68,1.03-0.21,1.54,0.29,1.78c0.19-0.01,0.38-0.03,0.57-0.06L62.83,16.12z"/>
		<path class="st4" d="M58.1,13.89c0.17,0.2,1.77,1.96,2.4,1.57c0.67-0.42,1.25-1,1.25-1S59.44,14.96,58.1,13.89z"/>
		<path class="st4" d="M50.58,17.29c0.84,0.58,2.92,0.42,3.84,0c0.91-0.42,1-1,1-1C53.92,17.37,50.58,17.29,50.58,17.29z"/>
		<path class="st4" d="M26.58,14.37c-0.5,1,0.92-0.16,3.59,0C30.17,14.37,27.08,13.37,26.58,14.37z"/>
		<path class="st4" d="M35.5,16.46c-1.83,0-2.25,0.25-2.25,0.25s3.92,1.08,4.33,0.66C37.58,17.37,37.33,16.46,35.5,16.46z"/>
		<path class="st4" d="M46.59,14.13c1.31,2.08-3.42,1.26-2.67,1.49c1.58,0.5,4,0.84,3.91-0.16C47.76,14.52,46.72,14.17,46.59,14.13z
			"/>
	</g>
	<g>
		<path class="st5" d="M45.33,17.54c-0.8,0.24-1.56,0.69-2.06,1.04c1.6,0.06,3.22,0.08,4.84,0.07c0.23,0,0.45,0,0.67,0
			C47.79,17.36,46.73,17.13,45.33,17.54z"/>
		<path class="st5" d="M33.17,14.79c0,0-0.67,0.33-1.5,0.83c-0.79,0.47-1.65,0.72-1.04,1.94c2.02,0.3,4.22,0.52,6.52,0.71
			c0.56,0.04,1.13,0.08,1.71,0.11c0.1-0.31,0.39-1.5-0.69-2.51C36.92,14.71,33.17,14.79,33.17,14.79z M33.25,16.71
			c0,0,0.42-0.25,2.25-0.25s2.08,0.91,2.08,0.91C37.17,17.79,33.25,16.71,33.25,16.71z"/>
		<path class="st5" d="M65.17,11.96c0,0-0.59-0.25-0.67-0.75s-1.17-0.59-1.17-0.59s-4.83-0.08-5.41-0.08
			c-0.59,0-1.75,0.25-1.75,0.25l-2.84-0.25c0,0-0.5,0.33-1.25-0.17s-1.58-0.33-1.58-0.33l-2.67,0.5c-8.83-0.17-17.75,1.5-17.75,1.5
			s-2.58-0.08-3.16-0.08c-0.59,0-1.75,0.83-2.17,1.25c-0.48,0.48-2.01,1.16-2.45,1.36c0.02,0.1,0.07,0.2,0.12,0.29
			c0.3,0.46,0.97,0.83,1.64,1.12c1.03,0.43,2.27,0.76,3.63,1.06c0.88,0.19,1.81,0.35,2.78,0.5c-0.36-0.36-0.9-1.01-0.55-1.42
			c0.5-0.58,2.58-1.83,2.58-1.83s0.42-0.25,1-0.25l3.92,0.75c0,0,0.25-0.58-1.17-1.25s-2.17-0.92-2.67-0.67s-1.08,0.75-1.08,0.75
			s1-1.58,2-1.33s3.42,1.42,3.42,1.42s0.66,0.33,1.25,2.25c0.51,1.67,0.51,2.33,0.5,2.47c0.83,0.05,1.67,0.09,2.52,0.12
			c0.91-1.08,4.71-1.82,5.39-1.59c0.75,0.25,1.92,1.66,1.92,1.66l-0.2,0.03c2.98-0.01,5.95-0.11,8.77-0.31
			c-0.1-0.12-0.15-0.27-0.15-0.43c0-0.39,0.31-0.7,0.7-0.7c0.4,0,0.71,0.31,0.71,0.7c0,0.13-0.03,0.26-0.09,0.36
			c0.77-0.06,1.53-0.13,2.28-0.2c-0.33-0.27-0.77-0.78-0.44-1.45c0.5-1,1.42-2.66,2.84-2.91c1.41-0.25,3.08,0.58,4,1.08
			c0.91,0.5,0.66,1.92,0.66,1.92l-0.91,0.5c0,0-0.21,0.06-0.51,0.12c-0.93,0.16-2.75,0.33-2.49-1.04c0,0,3,1.33,3-0.67
			s-3.75-1.5-4.67-0.66c-0.86,0.77-1.64,1.98-1.26,3.09c0.47-0.04,0.93-0.09,1.38-0.15c-0.5-0.24-0.97-0.75-0.29-1.78l0.86,1.72
			c1.22-0.14,2.38-0.3,3.47-0.5c0.47-0.08,0.93-0.17,1.38-0.26c1.36-0.29,2.6-0.61,3.65-1.02c0.52-0.21,0.99-0.45,1.37-0.74
			c0.12-0.09,0.22-0.18,0.31-0.28C71.06,13.25,65.17,11.96,65.17,11.96z M26.58,14.37c0.5-1,3.59,0,3.59,0
			C27.5,14.21,26.08,15.37,26.58,14.37z M25.42,14.54c0.16,1.17,2.41,1.58,2.41,1.58s2.67,0.67,0,0.34
			c-2.66-0.34-3.41-1.67-3.41-1.67s1-2.25,3.25-2.08c2.25,0.16,3,1.58,3,1.58C28.42,12.54,25.25,13.37,25.42,14.54z M31.54,13.54
			c-0.39,0-0.71-0.32-0.71-0.71c0-0.39,0.32-0.71,0.71-0.71c0.39,0,0.71,0.32,0.71,0.71C32.25,13.22,31.93,13.54,31.54,13.54z
			 M36.38,12.04c-0.26,0-0.46-0.19-0.46-0.42s0.2-0.41,0.46-0.41c0.25,0,0.45,0.18,0.45,0.41S36.63,12.04,36.38,12.04z M38.17,12.21
			c-0.33,0-0.59-0.25-0.59-0.54c0-0.3,0.26-0.55,0.59-0.55c0.32,0,0.58,0.25,0.58,0.55C38.75,11.96,38.49,12.21,38.17,12.21z
			 M55.04,11.21c0.3,0,0.54,0.24,0.54,0.54s-0.24,0.54-0.54,0.54c-0.3,0-0.54-0.24-0.54-0.54S54.74,11.21,55.04,11.21z M53.58,11.46
			c0.59,0.33,0.5,1.16,0.5,1.16s-0.58-0.58-1.91-0.83c-1.34-0.25-3.5-0.42-2.34,1c0.38,0.46,0.61,0.72,0.75,0.86
			c0.11,0.04,0.17,0.06,0.17,0.06s0.11,0.23-0.17-0.06c-0.41-0.16-1.43-0.57-2.08-1.03c0,0-0.67-1,1.17-1.33
			C51.5,10.96,53,11.12,53.58,11.46z M49.5,10.54c-1.42,0.58-1.67,1.33-1.67,1.33C46.67,10.37,49.5,10.54,49.5,10.54z M40.79,17.71
			c-0.25,0-0.46-0.21-0.46-0.46s0.21-0.46,0.46-0.46s0.46,0.21,0.46,0.46S41.04,17.71,40.79,17.71z M43.92,15.62
			c-0.75-0.23,3.98,0.59,2.67-1.49c0.13,0.04,1.17,0.39,1.24,1.33C47.92,16.46,45.5,16.12,43.92,15.62z M40.83,14.12
			c0,0,0.34-1.16,2-0.83c1.67,0.33,2.59,0.75,2.59,0.75s0.75,0.67,0.33,1.17S43.67,13.96,40.83,14.12z M49.25,14.54
			c0,0-1.92-2.08-2.75-2.5s-4.83,0.17-5.25,0.58c-0.42,0.42-1.33,1.17-1.25,1.59c0.08,0.41,0.08,0.41,0.08,0.41s1.33-0.66,3.23,2.07
			c-0.2-0.18-2.02-1.87-2.64-1.4c-0.46,0.34-0.33,0.6-0.21,0.74c-0.38-0.28-1.54-1.27-1.04-2.32c0.58-1.25,1.75-2.17,2.75-2.17
			s3.58-0.67,4.83,0.17c1.25,0.83,2.75,2.66,2.75,2.66L49.25,14.54z M54.42,17.29c-0.92,0.42-3,0.58-3.84,0c0,0,3.34,0.08,4.84-1
			C55.42,16.29,55.33,16.87,54.42,17.29z M56.12,18.21c-0.2,0-0.37-0.17-0.37-0.38c0-0.21,0.17-0.37,0.37-0.37
			c0.21,0,0.38,0.16,0.38,0.37C56.5,18.04,56.33,18.21,56.12,18.21z M58.42,16.37l-1.17,0.92c0,0,0.58-1.5-0.17-2.08
			c-0.75-0.59-3.25-0.84-3.83-0.92s-2.33,1.08-2.08,1.5s2.16,0.33,2.16,0.33s-2.08,0.92-3.25,0.5c-1.16-0.41,1.17-2,1.92-2.41
			c0.75-0.42,1.08-0.92,2.58-0.42s3.42,0.75,3.67,1.25S58.42,16.37,58.42,16.37z M60.5,15.46c-0.63,0.39-2.23-1.37-2.4-1.57
			c1.34,1.07,3.65,0.57,3.65,0.57S61.17,15.04,60.5,15.46z M62.42,13.54c-0.39,0.46-2.7-0.11-3.66-0.38
			c1.17,0.23,3.54,0.23,2.83-0.78C61.72,12.43,62.89,12.99,62.42,13.54z M63.5,13.37c0,0,0.42-1.33-1.08-1.66
			c-1.5-0.34-4.09,0.16-4.5,0.83c-0.42,0.67-1.25,0.83-1.25,0.83s-0.09-1.83,1.08-2c1.17-0.16,4.08-0.41,5.5-0.16
			S63.5,13.37,63.5,13.37z M69.84,15.3c-0.21,0.21-0.55,0.21-0.76,0c-0.22-0.21-0.22-0.56,0-0.77c0.21-0.21,0.55-0.21,0.76,0
			C70.05,14.74,70.05,15.09,69.84,15.3z M71.04,16.29c-0.34,0-0.62-0.28-0.62-0.63c0-0.34,0.28-0.62,0.62-0.62
			c0.35,0,0.63,0.28,0.63,0.62C71.67,16.01,71.39,16.29,71.04,16.29z"/>
	</g>
	<path class="st1" d="M64.67,79.68c-0.14,1.07-0.27,2.11-0.39,3.09c-0.29,0.58-0.58,1.21-0.86,1.88l0.2-3.09
		C63.96,80.88,64.31,80.25,64.67,79.68z"/>
	<path class="st1" d="M67.04,58.61c-0.51,5.02-1.07,10.06-1.61,14.69c-0.45,0.5-0.91,1.05-1.37,1.65l0.95-14.49
		C65.72,59.77,66.4,59.15,67.04,58.61z"/>
	<path class="st1" d="M68.55,25.74c0.08,0.42,0.15,0.91,0.2,1.46c-0.52,0.4-1.07,0.83-1.64,1.29l0.11-1.73
		C67.68,26.39,68.12,26.06,68.55,25.74z"/>
	<path class="st1" d="M68.89,33.38c-0.06,2.76-0.22,5.99-0.47,9.5c-0.73,0.6-1.53,1.29-2.39,2.07l0.64-9.77
		C67.46,34.51,68.21,33.91,68.89,33.38z"/>
	<path class="st1" d="M67.94,49.06c-0.05,0.56-0.1,1.13-0.15,1.69c-0.71,0.65-1.48,1.39-2.29,2.21l0.12-1.8
		C66.45,50.35,67.23,49.65,67.94,49.06z"/>
	<g>
		<path class="st6" d="M26.98,59.16c0.41,3.96,0.83,7.93,1.23,11.74c0.86-6.35,2.27-12.09,3.99-17.21c-0.33-3.32-0.61-6.3-0.84-8.95
			C29.62,48.96,28.08,53.77,26.98,59.16z"/>
		<path class="st6" d="M66.55,21.45c-0.61,0.45-1.36,1.03-2.22,1.72c3.23-0.71,6.49-1.69,9.72-3.01c0.07-0.53,0.13-0.96,0.17-1.29
			c-0.13,0.08-0.27,0.15-0.42,0.22C71.91,19.97,69.45,20.78,66.55,21.45z"/>
		<path class="st6" d="M30.28,27.91c-1.86,3.62-3.98,8.49-5.15,13.64c0.22,2.08,0.45,4.25,0.68,6.48C26.6,42.71,28.5,37.42,30.49,33
			C30.38,30.92,30.31,29.25,30.28,27.91z"/>
		<path class="st6" d="M28.63,22.39c-1.13,2.18-3.13,6.39-4.35,11.1c0.16,1.55,0.34,3.21,0.52,4.94c1.61-5.71,3.83-10.22,5.48-13.08
			c0.03-1.39,0.11-2.14,0.19-2.55c0.4,0.08,0.81,0.17,1.23,0.25c0.34-0.52,0.6-0.88,0.73-1.06c-1.08-0.19-2.16-0.4-3.24-0.65
			C29.05,21.6,28.86,21.95,28.63,22.39z"/>
		<path class="st6" d="M44.77,23.3c-1.75-0.06-3.53-0.18-5.35-0.36c-1.11-0.11-2.22-0.24-3.35-0.38c-0.84-0.12-1.68-0.24-2.52-0.38
			c-0.17,0.27-0.4,0.64-0.68,1.1c0.8,0.14,1.63,0.29,2.49,0.42c2.5,0.39,5.26,0.72,8.21,0.91c1.67,0.11,3.4,0.17,5.18,0.17
			c0.53-0.59,0.99-1.06,1.35-1.42C48.36,23.39,46.59,23.37,44.77,23.3z"/>
		<path class="st6" d="M76.34,13.97c0.01,0.02,0.01,0.03,0.01,0.05c0,3.74-12.79,6.77-28.57,6.77c-15.57,0-28.23-2.95-28.55-6.62
			c-0.14,0.25-0.22,0.5-0.22,0.76c-0.01,0.71,0.6,1.45,1.33,1.98c0.74,0.54,1.6,0.97,2.48,1.34c1.77,0.73,3.65,1.23,5.52,1.62
			c3.76,0.77,7.55,1.15,11.21,1.35c7.33,0.37,14.19,0.15,20.02-0.36c5.83-0.52,10.67-1.5,13.74-2.85c1.53-0.66,2.59-1.45,3.01-2.08
			c0.13-0.16,0.18-0.3,0.25-0.43c0.04-0.1,0.07-0.19,0.09-0.26c0.02-0.19,0.03-0.28,0.03-0.32C76.67,14.89,76.76,14.56,76.34,13.97z
			"/>
		<path class="st6" d="M24.75,13.21c0.42-0.42,1.58-1.25,2.17-1.25c0.58,0,3.16,0.08,3.16,0.08s8.92-1.67,17.75-1.5l2.67-0.5
			c0,0,0.83-0.17,1.58,0.33s1.25,0.17,1.25,0.17l2.84,0.25c0,0,1.16-0.25,1.75-0.25c0.58,0,5.41,0.08,5.41,0.08s1.09,0.09,1.17,0.59
			s0.67,0.75,0.67,0.75s5.89,1.29,8.7,3.08c0.2-0.22,0.32-0.48,0.29-0.75c-0.05-0.35-0.31-0.65-0.53-0.85
			c-0.23-0.21-0.46-0.36-0.64-0.48c-0.23-0.14-0.4-0.23-0.5-0.28c0.1,0.04,0.28,0.11,0.52,0.24c0.2,0.1,0.44,0.23,0.7,0.43
			c0.24,0.2,0.55,0.46,0.64,0.93c0.02,0.09,0.02,0.17,0,0.26c0.02-0.07,0.03-0.15,0.03-0.22c0-1.59-4.36-2.99-11.03-3.84
			c-4.25-0.54-9.44-0.86-15.04-0.86c-11.36,0-21.02,1.31-24.59,3.14c0.22-0.1,0.38-0.16,0.45-0.18c-0.08,0.03-0.27,0.13-0.56,0.29
			c-0.35,0.23-1.01,0.55-1.3,1.26c-0.05,0.15-0.05,0.3-0.01,0.44C22.74,14.37,24.27,13.69,24.75,13.21z"/>
	</g>
	<g>
		<path class="st7" d="M59.77,22.66c-2.96,0.4-6.19,0.64-9.61,0.7c-0.02,0-0.04,0-0.06,0c-0.36,0.36-0.82,0.83-1.35,1.42
			c4.93,0,10.21-0.44,15.58-1.61c0.86-0.69,1.61-1.27,2.22-1.72C64.5,21.93,62.23,22.34,59.77,22.66z"/>
		<path class="st7" d="M33.55,22.18c-0.37-0.06-0.75-0.12-1.12-0.19c-0.13,0.18-0.39,0.54-0.73,1.06c0.38,0.08,0.77,0.15,1.17,0.23
			C33.15,22.82,33.38,22.45,33.55,22.18z"/>
		<path class="st7" d="M29.19,21.34c-0.37-0.09-0.75-0.18-1.12-0.27c-1.91-0.48-3.82-1.04-5.67-1.83c-0.3-0.13-0.59-0.27-0.88-0.41
			c0.06,0.39,0.13,0.93,0.22,1.61c0.26,0.09,0.66,0.23,1.21,0.4c0.16,1.56,0.66,6.26,1.33,12.65c1.22-4.71,3.22-8.92,4.35-11.1
			C28.86,21.95,29.05,21.6,29.19,21.34z"/>
		<path class="st7" d="M30.28,27.9c-0.01-1.03-0.01-1.87,0-2.55c-1.65,2.86-3.87,7.37-5.48,13.08c0.11,1.01,0.22,2.05,0.33,3.12
			c1.17-5.15,3.29-10.02,5.15-13.64C30.29,27.9,30.28,27.9,30.28,27.9z"/>
		<path class="st7" d="M30.49,33c-1.99,4.42-3.89,9.71-4.68,15.03c0.38,3.61,0.77,7.37,1.17,11.13c1.1-5.39,2.64-10.2,4.38-14.42
			C30.93,39.83,30.66,35.99,30.49,33z"/>
		<path class="st7" d="M28.21,70.9c1.03,9.79,1.95,18.56,2.47,23.6c0.83,0.44,2.03,0.85,3.44,1.19c0.92,0.23,1.95,0.42,3.04,0.59
			c-2.34-18.38-3.91-32.2-4.96-42.59C30.48,58.81,29.07,64.55,28.21,70.9z"/>
	</g>
	<path class="st1" d="M24.28,33.49c-0.22,0.85-0.42,1.72-0.58,2.59c-0.27-2.24-0.53-4.35-0.76-6.28c-0.41-3.5-0.82-6.42-1.08-8.47
		c-0.04-0.32-0.08-0.62-0.12-0.89c0.26,0.09,0.66,0.23,1.21,0.4C23.11,22.4,23.61,27.1,24.28,33.49z"/>
	<path class="st1" d="M24.8,38.43c0.11,1.01,0.22,2.05,0.33,3.12c-0.2,0.87-0.37,1.75-0.51,2.63c-0.09-0.81-0.17-1.6-0.26-2.39
		c-0.04-0.39-0.08-0.78-0.13-1.16C24.41,39.88,24.6,39.14,24.8,38.43z"/>
	<path class="st1" d="M30.68,94.5c-0.23-0.12-0.44-0.25-0.61-0.38c-0.39-0.28-0.59-0.55-0.67-0.72c-0.08-0.18-0.06-0.28-0.08-0.28
		h-0.5l0.5-0.05c0,0-0.09-1.17-0.24-3.23c-0.17-2.05-0.42-4.99-0.72-8.51c-0.18-2.01-0.37-4.2-0.59-6.54
		c0.12-1.33,0.27-2.62,0.44-3.89C29.24,80.69,30.16,89.46,30.68,94.5z"/>
	<path class="st1" d="M25.81,48.03c0.38,3.61,0.77,7.37,1.17,11.13c-0.18,0.85-0.34,1.71-0.49,2.59c-0.2-2.05-0.41-4.13-0.62-6.2
		c-0.14-1.27-0.28-2.55-0.42-3.81C25.5,50.51,25.62,49.27,25.81,48.03z"/>
	<g>
		<path class="st8" d="M31.7,23.05c-0.38,0.57-0.87,1.35-1.42,2.3c-0.01,0.68-0.01,1.52,0,2.55c1-1.95,1.93-3.54,2.59-4.62
			C32.47,23.2,32.08,23.13,31.7,23.05z"/>
		<path class="st8" d="M68.42,42.88c1.32-1.07,2.41-1.85,3.12-2.33c0.39-3.57,0.81-6.91,1.17-9.87c-0.72,0.45-2.08,1.35-3.82,2.7
			C68.83,36.14,68.67,39.37,68.42,42.88z"/>
		<path class="st8" d="M67.79,50.75c1.12-1.01,2.11-1.81,2.88-2.4c0.06-0.53,0.12-1.05,0.18-1.56c-0.6,0.41-1.63,1.17-2.91,2.27
			C67.89,49.62,67.84,50.19,67.79,50.75z"/>
		<path class="st8" d="M65.43,73.3c1.17-1.31,2.23-2.24,2.96-2.82c0.03-0.39,0.07-0.78,0.11-1.17c0.41-4.09,0.85-8.44,1.29-12.8
			c-0.71,0.47-1.66,1.17-2.75,2.1C66.53,63.63,65.97,68.67,65.43,73.3z"/>
		<path class="st8" d="M64.67,79.68c-0.14,1.07-0.27,2.11-0.39,3.09c1.19-2.38,2.46-4.07,3.45-5.19c0.06-0.67,0.13-1.36,0.19-2.07
			C67.11,76.29,65.9,77.64,64.67,79.68z"/>
		<path class="st8" d="M68.55,25.74c0.08,0.42,0.15,0.91,0.2,1.46c2-1.53,3.68-2.65,4.81-3.37c0.08-0.57,0.15-1.1,0.22-1.59
			C73.01,22.68,71.1,23.85,68.55,25.74z"/>
		<path class="st8" d="M67.11,28.49l0.11-1.73c-11.96,9.27-34.49,32.3-26.6,69.92c0.28,0.03,0.56,0.06,0.84,0.07
			C34.29,60.74,55.01,38.23,67.11,28.49z"/>
		<path class="st8" d="M62.79,94.25l0.25-3.75c-0.53,1.59-0.88,3.29-0.9,5.03c1.55-0.41,2.78-0.88,3.48-1.41
			c0.39-0.28,0.59-0.56,0.66-0.71c0.02-0.03,0.03-0.06,0.05-0.08c0.01-0.06,0.02-0.1,0.02-0.14c0.02-0.08,0.02-0.12,0.02-0.12
			l0.21,0.02l-0.15-0.02c0,0,0.09-1.17,0.25-3.23c0.15-1.79,0.36-4.27,0.6-7.22c-1.08,1.43-2.72,3.88-3.85,6.79
			C63.04,92.45,62.79,94.25,62.79,94.25z"/>
		<path class="st8" d="M66.03,44.95l0.64-9.77c-10.22,8.64-28.09,28.91-22.29,61.75c1.15,0.05,2.29,0.08,3.47,0.07
			c0.25,0,0.5,0,0.74-0.01C43.87,69.86,57.46,52.76,66.03,44.95z"/>
		<path class="st8" d="M65.5,52.96l0.12-1.8C58.2,58.3,46.69,73.48,49.98,96.98c0.31-0.01,0.62-0.02,0.92-0.04
			C48.09,75,58.19,60.42,65.5,52.96z"/>
		<path class="st8" d="M64.06,74.95l0.95-14.49c-5.87,5.8-13.62,17.26-11.75,36.36c0.67-0.04,1.33-0.09,1.98-0.15
			c0.9-0.09,1.78-0.19,2.63-0.31C57.34,86.18,60.79,79.2,64.06,74.95z"/>
		<path class="st8" d="M63.62,81.56c-1.69,3.35-3.23,8.07-3.64,14.46c0.27-0.04,0.53-0.09,0.78-0.15c0.42-4.63,1.45-8.32,2.66-11.22
			L63.62,81.56z"/>
		<path class="st8" d="M64.33,23.17c-5.37,1.17-10.65,1.61-15.58,1.61c-3.77,4.11-11.48,13.81-16.55,28.91
			c1.05,10.39,2.62,24.21,4.96,42.59c0.43,0.06,0.89,0.12,1.35,0.18C29.1,56.1,54.23,31.32,64.33,23.17z"/>
		<path class="st8" d="M35.36,23.7c-1.14,1.88-3.04,5.21-4.87,9.3c0.17,2.99,0.44,6.83,0.87,11.74
			c4.16-10.17,9.41-16.95,12.21-20.13C40.62,24.42,37.86,24.09,35.36,23.7z"/>
	</g>
	<g>
		<path class="st9" d="M77.24,13.3c-0.61-0.92-1.83-1.77-3.44-2.52c-1.62-0.75-3.66-1.39-6.02-1.99c-2.36-0.58-5.06-1.08-8.02-1.46
			c-2.96-0.38-6.18-0.67-9.6-0.74c-3.41-0.09-7.03-0.04-10.74,0.29C35.7,7.17,31.87,7.76,28.05,8.7c-1.91,0.48-3.82,1.06-5.67,1.88
			c-0.92,0.41-1.84,0.87-2.69,1.51c-0.42,0.31-0.82,0.69-1.16,1.15c-0.17,0.23-0.31,0.49-0.43,0.78c-0.04,0.16-0.1,0.34-0.13,0.49
			l-0.03,0.42c0,0.64,0.27,1.23,0.61,1.67c0.34,0.46,0.74,0.83,1.17,1.14c0.23,0.18,0.47,0.34,0.71,0.49c0,0,0.02,0.29,0.06,0.84
			c0.05,0.55,0.11,1.36,0.18,2.39c0.18,2.05,0.38,4.99,0.71,8.51c0.33,3.52,0.66,7.63,1.12,12.02c0.44,4.39,0.91,9.08,1.39,13.76
			c0.51,4.69,1.03,9.37,1.51,13.76c0.49,4.39,1.01,8.48,1.42,11.98c0.44,3.51,0.81,6.43,1.07,8.48c0.28,2.04,0.44,3.21,0.44,3.21
			c0,0.01,0,0.03,0,0.06c0,0.1,0.01,0.28,0.08,0.51c0.12,0.39,0.42,0.88,0.91,1.3c0.41,0.35,0.92,0.69,1.52,1
			c0.81,0.43,1.77,0.81,2.86,1.14c1.89,0.56,4.13,1.04,6.55,1.34c0.51,0.06,1.04,0.12,1.56,0.17c0.72,0.08,1.44,0.14,2.17,0.18
			c1.27,0.07,2.59,0.11,3.86,0.12c1.11,0,2.22-0.03,3.31-0.09c1.47-0.07,2.91-0.19,4.3-0.37c1.86-0.22,3.61-0.56,5.18-0.97
			c0.47-0.12,0.92-0.24,1.36-0.37c1.89-0.57,3.42-1.32,4.39-2.15c0.48-0.42,0.78-0.9,0.91-1.31c0.03-0.11,0.05-0.22,0.06-0.3
			c0.01-0.06,0.01-0.11,0.01-0.15c0.01-0.08,0.01-0.12,0.01-0.12l0.06,0.01c0,0,0.15-1.17,0.43-3.21c0.26-2.05,0.63-4.97,1.08-8.48
			c0.21-1.75,0.44-3.65,0.68-5.67c0.24-2,0.49-4.12,0.73-6.31c0.49-4.39,1-9.07,1.52-13.76c0.29-2.91,0.58-5.82,0.87-8.66
			c0.18-1.73,0.35-3.44,0.52-5.1c0.45-4.39,0.78-8.5,1.11-12.02c0.26-2.72,0.44-5.1,0.58-6.98c0,0,0-0.01,0.01,0
			c0.04-0.55,0.08-1.06,0.12-1.53c0.14-1.91,0.23-3.05,0.24-3.2c0.86-0.53,1.52-1.1,1.92-1.7c0.16-0.21,0.26-0.44,0.35-0.63
			c0.08-0.22,0.14-0.44,0.17-0.59c0.02-0.23,0.03-0.36,0.03-0.36l0.01-0.05C77.77,14.93,77.88,14.18,77.24,13.3z M72.81,29.8
			c-0.03,0.29-0.07,0.58-0.1,0.88c-0.36,2.96-0.78,6.3-1.17,9.87c-0.05,0.41-0.1,0.82-0.14,1.24c-0.18,1.63-0.37,3.3-0.55,5
			c-0.06,0.51-0.12,1.03-0.18,1.56c-0.25,2.37-0.52,4.78-0.78,7.2c-0.03,0.32-0.06,0.64-0.1,0.96c-0.44,4.36-0.88,8.71-1.29,12.8
			c-0.04,0.39-0.08,0.78-0.11,1.17c-0.17,1.73-0.32,3.42-0.47,5.03c-0.06,0.71-0.13,1.4-0.19,2.07c-0.12,1.31-0.23,2.56-0.34,3.75
			c-0.04,0.44-0.07,0.87-0.11,1.29c-0.24,2.95-0.45,5.43-0.6,7.22c-0.16,2.06-0.25,3.23-0.25,3.23l0.15,0.02l-0.21-0.02
			c0,0,0,0.04-0.02,0.12c0,0.04-0.01,0.08-0.02,0.14c-0.02,0.02-0.03,0.05-0.05,0.08c-0.07,0.15-0.27,0.43-0.66,0.71
			c-0.7,0.53-1.93,1-3.48,1.41c-0.18,0.05-0.37,0.1-0.57,0.15c-0.26,0.07-0.53,0.13-0.81,0.19c-0.25,0.06-0.51,0.11-0.78,0.15
			c-0.67,0.13-1.38,0.24-2.11,0.34c-0.85,0.12-1.73,0.22-2.63,0.31c-0.65,0.06-1.31,0.11-1.98,0.15c-0.77,0.05-1.56,0.1-2.36,0.12
			c-0.3,0.02-0.61,0.03-0.92,0.04c-0.46,0.01-0.92,0.02-1.39,0.01C48.35,97,48.1,97,47.85,97c-1.18,0.01-2.32-0.02-3.47-0.07
			c-0.1,0-0.2-0.01-0.3-0.01c-0.88-0.04-1.76-0.09-2.62-0.17c-0.28-0.01-0.56-0.04-0.84-0.07c-0.06,0-0.11,0-0.17-0.01
			c-0.66-0.06-1.31-0.13-1.94-0.21c-0.46-0.06-0.92-0.12-1.35-0.18c-1.09-0.17-2.12-0.36-3.04-0.59c-1.41-0.34-2.61-0.75-3.44-1.19
			c-0.23-0.12-0.44-0.25-0.61-0.38c-0.39-0.28-0.59-0.55-0.67-0.72c-0.08-0.18-0.06-0.28-0.08-0.28h-0.5l0.5-0.05
			c0,0-0.09-1.17-0.24-3.23c-0.17-2.05-0.42-4.99-0.72-8.51c-0.18-2.01-0.37-4.2-0.59-6.54c-0.16-1.75-0.33-3.59-0.52-5.48
			c-0.24-2.44-0.5-4.98-0.76-7.56c-0.2-2.05-0.41-4.13-0.62-6.2c-0.14-1.27-0.28-2.55-0.42-3.81c-0.28-2.56-0.56-5.1-0.83-7.56
			c-0.09-0.81-0.17-1.6-0.26-2.39c-0.04-0.39-0.08-0.78-0.13-1.16c-0.17-1.57-0.35-3.09-0.53-4.55c-0.27-2.24-0.53-4.35-0.76-6.28
			c-0.41-3.5-0.82-6.42-1.08-8.47c-0.04-0.32-0.08-0.62-0.12-0.89c-0.09-0.68-0.16-1.22-0.22-1.61c0.29,0.14,0.58,0.28,0.88,0.41
			c1.85,0.79,3.76,1.35,5.67,1.83c0.37,0.09,0.75,0.18,1.12,0.27c1.08,0.25,2.16,0.46,3.24,0.65c0.37,0.07,0.75,0.13,1.12,0.19
			c0.84,0.14,1.68,0.26,2.52,0.38c1.13,0.14,2.24,0.27,3.35,0.38c1.82,0.18,3.6,0.3,5.35,0.36c1.82,0.07,3.59,0.09,5.33,0.06
			c0.02,0,0.04,0,0.06,0c3.42-0.06,6.65-0.3,9.61-0.7c2.46-0.32,4.73-0.73,6.78-1.21c2.9-0.67,5.36-1.48,7.25-2.36
			c0.15-0.07,0.29-0.14,0.42-0.22c-0.04,0.33-0.1,0.76-0.17,1.29c-0.05,0.35-0.1,0.74-0.16,1.17c-0.04,0.28-0.08,0.59-0.11,0.91
			c-0.07,0.49-0.14,1.02-0.22,1.59C73.34,25.52,73.07,27.54,72.81,29.8z M76.66,15.24c-0.02,0.07-0.05,0.16-0.09,0.26
			c-0.07,0.13-0.12,0.27-0.25,0.43c-0.42,0.63-1.48,1.42-3.01,2.08c-3.07,1.35-7.91,2.33-13.74,2.85
			c-5.83,0.51-12.69,0.73-20.02,0.36c-3.66-0.2-7.45-0.58-11.21-1.35c-1.87-0.39-3.75-0.89-5.52-1.62c-0.88-0.37-1.74-0.8-2.48-1.34
			c-0.73-0.53-1.34-1.27-1.33-1.98c0-0.26,0.08-0.51,0.22-0.76c0.24-0.44,0.66-0.84,1.13-1.19c0.74-0.53,1.6-0.97,2.48-1.32
			c0.44-0.18,0.89-0.34,1.35-0.49c0.01,0,0.02,0,0.03-0.01c1.35-0.45,2.75-0.79,4.14-1.08c3.76-0.77,7.54-1.13,11.19-1.39
			c3.66-0.23,7.21-0.33,10.58-0.29c3.35,0.06,6.54,0.2,9.46,0.48c5.04,0.48,9.34,1.3,12.38,2.42c0.48,0.17,0.93,0.35,1.34,0.54
			c1.52,0.68,2.59,1.45,3.01,2.09c0.01,0.01,0.01,0.02,0.02,0.03v0.01c0.42,0.59,0.33,0.92,0.35,0.95
			C76.69,14.96,76.68,15.05,76.66,15.24z"/>
		<path class="st9" d="M73.71,13.35c-0.26-0.2-0.5-0.33-0.7-0.43c-0.24-0.13-0.42-0.2-0.52-0.24c0.1,0.05,0.27,0.14,0.5,0.28
			c0.18,0.12,0.41,0.27,0.64,0.48c0.22,0.2,0.48,0.5,0.53,0.85c0.03,0.27-0.09,0.53-0.29,0.75c-0.09,0.1-0.19,0.19-0.31,0.28
			c-0.38,0.29-0.85,0.53-1.37,0.74c-1.05,0.41-2.29,0.73-3.65,1.02c-0.45,0.09-0.91,0.18-1.38,0.26c-1.09,0.2-2.25,0.36-3.47,0.5
			c-0.19,0.03-0.38,0.05-0.57,0.06c-0.45,0.06-0.91,0.11-1.38,0.15c-0.07,0.01-0.15,0.01-0.22,0.02c-0.75,0.07-1.51,0.14-2.28,0.2
			c-0.06,0-0.11,0.01-0.17,0.01c-0.33,0.03-0.66,0.05-1,0.06c-2.82,0.2-5.79,0.3-8.77,0.31c-0.17,0-0.35,0-0.52,0
			c-0.22,0-0.44,0-0.67,0c-1.62,0.01-3.24-0.01-4.84-0.07c-0.36,0-0.72-0.01-1.08-0.03c-0.85-0.03-1.69-0.07-2.52-0.12
			c-0.27-0.01-0.54-0.02-0.81-0.05c-0.58-0.03-1.15-0.07-1.71-0.11c-2.3-0.19-4.5-0.41-6.52-0.71c-0.05,0-0.11-0.01-0.16-0.02
			c-0.97-0.15-1.9-0.31-2.78-0.5c-1.36-0.3-2.6-0.63-3.63-1.06c-0.67-0.29-1.34-0.66-1.64-1.12c-0.05-0.09-0.1-0.19-0.12-0.29
			c-0.04-0.14-0.04-0.29,0.01-0.44c0.29-0.71,0.95-1.03,1.3-1.26c0.29-0.16,0.48-0.26,0.56-0.29c-0.07,0.02-0.23,0.08-0.45,0.18
			c-0.03,0.01-0.05,0.02-0.07,0.03c-0.02,0.01-0.05,0.02-0.07,0.03c-0.19,0.1-0.44,0.22-0.71,0.4c-0.26,0.19-0.57,0.42-0.75,0.84
			c-0.2,0.43,0.04,0.98,0.41,1.34c0.29,0.29,0.65,0.52,1.04,0.74c0.11,0.06,0.22,0.11,0.33,0.17c1.04,0.52,2.29,0.93,3.66,1.27
			c2.75,0.69,6.01,1.22,9.52,1.55c3.51,0.32,7.27,0.49,11.03,0.52c3.76-0.02,7.52-0.19,11.03-0.5c3.52-0.32,6.78-0.85,9.53-1.52
			c1.33-0.33,2.55-0.72,3.58-1.19c0.03-0.01,0.06-0.03,0.09-0.04c0.52-0.25,1-0.53,1.39-0.86c0.31-0.26,0.57-0.61,0.62-0.98
			c0,0,0-0.01,0-0.02c0.02-0.09,0.02-0.17,0-0.26C74.26,13.81,73.95,13.55,73.71,13.35z"/>
	</g>
</g>
<g>
	<path class="st10" d="M38.016,3.603c-0.47,0-0.852-0.382-0.852-0.852s0.382-0.852,0.852-0.852s0.852,0.382,0.852,0.852
		S38.485,3.603,38.016,3.603z M38.016,2.399c-0.194,0-0.352,0.158-0.352,0.352s0.158,0.352,0.352,0.352s0.352-0.158,0.352-0.352
		S38.209,2.399,38.016,2.399z"/>
</g>
<g>
	<path class="st10" d="M59.104,5.981c-0.47,0-0.852-0.382-0.852-0.851c0-0.47,0.382-0.852,0.852-0.852s0.852,0.382,0.852,0.852
		C59.955,5.6,59.573,5.981,59.104,5.981z M59.104,4.779c-0.194,0-0.352,0.158-0.352,0.352c0,0.193,0.157,0.351,0.352,0.351
		s0.352-0.158,0.352-0.351C59.455,4.937,59.298,4.779,59.104,4.779z"/>
</g>
<g>
	<path class="st10" d="M33.961,6.923c-0.47,0-0.852-0.382-0.852-0.851c0-0.47,0.382-0.852,0.852-0.852s0.852,0.382,0.852,0.852
		C34.813,6.541,34.431,6.923,33.961,6.923z M33.961,5.72c-0.194,0-0.352,0.158-0.352,0.352c0,0.193,0.158,0.351,0.352,0.351
		s0.352-0.158,0.352-0.351C34.313,5.878,34.155,5.72,33.961,5.72z"/>
</g>
<g>
	<path class="st10" d="M52.678,4.204c-0.594,0-1.077-0.483-1.077-1.077s0.483-1.077,1.077-1.077s1.077,0.483,1.077,1.077
		S53.271,4.204,52.678,4.204z M52.678,2.55c-0.318,0-0.577,0.259-0.577,0.577s0.259,0.577,0.577,0.577s0.577-0.259,0.577-0.577
		S52.996,2.55,52.678,2.55z"/>
</g>
<g>
	<g>
		<rect x="44.364" y="1.092" class="st10" width="0.5" height="1.049"/>
	</g>
	<g>
		<rect x="44.364" y="3.338" class="st10" width="0.5" height="1.135"/>
	</g>
	<g>
		
			<rect x="43.539" y="1.433" transform="matrix(0.7071 -0.7071 0.7071 0.7071 11.4412 31.5371)" class="st10" width="0.5" height="1.049"/>
	</g>
	<g>
		
			<rect x="45.158" y="3.009" transform="matrix(0.7069 -0.7073 0.7073 0.7069 10.7796 33.1664)" class="st10" width="0.5" height="1.136"/>
	</g>
	<g>
		<rect x="42.923" y="2.532" class="st10" width="1.049" height="0.5"/>
	</g>
	<g>
		<rect x="45.169" y="2.532" class="st10" width="1.135" height="0.5"/>
	</g>
	<g>
		
			<rect x="43.265" y="3.357" transform="matrix(0.7071 -0.7071 0.7071 0.7071 10.2749 32.0202)" class="st10" width="1.049" height="0.5"/>
	</g>
	<g>
		
			<rect x="44.84" y="1.738" transform="matrix(0.7071 -0.7071 0.7071 0.7071 11.8938 32.6906)" class="st10" width="1.136" height="0.5"/>
	</g>
</g>
<g>
	<g>
		
			<rect x="28.457" y="4.173" transform="matrix(0.1991 -0.98 0.98 0.1991 18.8173 31.8715)" class="st10" width="0.902" height="0.5"/>
	</g>
	<g>
		
			<rect x="28.026" y="6.103" transform="matrix(0.1991 -0.98 0.98 0.1991 16.611 33.0321)" class="st10" width="0.977" height="0.5"/>
	</g>
	<g>
		
			<rect x="27.904" y="4.119" transform="matrix(0.8341 -0.5516 0.5516 0.8341 2.1496 16.287)" class="st10" width="0.5" height="0.902"/>
	</g>
	<g>
		
			<rect x="28.991" y="5.724" transform="matrix(0.8339 -0.5519 0.5519 0.8339 1.4283 17.1707)" class="st10" width="0.5" height="0.977"/>
	</g>
	<g>
		
			<rect x="27.474" y="4.755" transform="matrix(0.1997 -0.9799 0.9799 0.1997 17.0876 31.333)" class="st10" width="0.5" height="0.902"/>
	</g>
	<g>
		
			<rect x="29.404" y="5.111" transform="matrix(0.1995 -0.9799 0.9799 0.1995 18.252 33.5407)" class="st10" width="0.5" height="0.977"/>
	</g>
	<g>
		
			<rect x="27.42" y="5.71" transform="matrix(0.8344 -0.5511 0.5511 0.8344 1.3295 16.346)" class="st10" width="0.902" height="0.5"/>
	</g>
	<g>
		
			<rect x="29.025" y="4.624" transform="matrix(0.8344 -0.5511 0.5511 0.8344 2.2003 17.0713)" class="st10" width="0.977" height="0.5"/>
	</g>
</g>
<g>
	<g>
		<rect x="65.256" y="4.965" class="st10" width="0.5" height="0.786"/>
	</g>
	<g>
		<rect x="65.256" y="6.648" class="st10" width="0.5" height="0.851"/>
	</g>
	<g>
		
			<rect x="64.638" y="5.221" transform="matrix(0.7071 -0.7071 0.7071 0.7071 15.0354 47.5273)" class="st10" width="0.5" height="0.786"/>
	</g>
	<g>
		
			<rect x="65.852" y="6.402" transform="matrix(0.7071 -0.7071 0.7071 0.7071 14.5328 48.7406)" class="st10" width="0.5" height="0.851"/>
	</g>
	<g>
		<rect x="64.239" y="5.982" class="st10" width="0.786" height="0.5"/>
	</g>
	<g>
		<rect x="65.922" y="5.982" class="st10" width="0.852" height="0.5"/>
	</g>
	<g>
		
			<rect x="64.495" y="6.6" transform="matrix(0.7071 -0.7071 0.7071 0.7071 14.1614 47.8893)" class="st10" width="0.786" height="0.5"/>
	</g>
	<g>
		
			<rect x="65.676" y="5.387" transform="matrix(0.7071 -0.7071 0.7071 0.7071 15.3746 48.392)" class="st10" width="0.851" height="0.5"/>
	</g>
</g>
</svg>
